<?xml version="1.0" encoding="UTF-8" standalone="no"?>
<!-- Created with Inkscape (http://www.inkscape.org/) -->

<svg
   width="84.575386mm"
   height="207.80887mm"
   viewBox="0 0 299.67656 736.33065"
   id="svg2"
   version="1.1"
   inkscape:version="1.3.2 (091e20e, 2023-11-25, custom)"
   sodipodi:docname="locandina2024.svg"
   inkscape:export-filename="C:\Users\Pc_01\Desktop\manifesto.png"
   inkscape:export-xdpi="90"
   inkscape:export-ydpi="90"
   xmlns:inkscape="http://www.inkscape.org/namespaces/inkscape"
   xmlns:sodipodi="http://sodipodi.sourceforge.net/DTD/sodipodi-0.dtd"
   xmlns:xlink="http://www.w3.org/1999/xlink"
   xmlns="http://www.w3.org/2000/svg"
   xmlns:svg="http://www.w3.org/2000/svg"
   xmlns:rdf="http://www.w3.org/1999/02/22-rdf-syntax-ns#"
   xmlns:cc="http://creativecommons.org/ns#"
   xmlns:dc="http://purl.org/dc/elements/1.1/">
  <defs
     id="defs4" />
  <sodipodi:namedview
     id="base"
     pagecolor="#ffffff"
     bordercolor="#666666"
     borderopacity="1.0"
     inkscape:pageopacity="1"
     inkscape:pageshadow="2"
     inkscape:zoom="0.53740116"
     inkscape:cx="435.42891"
     inkscape:cy="946.22051"
     inkscape:document-units="px"
     inkscape:current-layer="layer1"
     showgrid="true"
     inkscape:window-width="1920"
     inkscape:window-height="1017"
     inkscape:window-x="-8"
     inkscape:window-y="-8"
     inkscape:window-maximized="1"
     inkscape:showpageshadow="false"
     inkscape:pagecheckerboard="1"
     inkscape:deskcolor="#d1d1d1" />
  <metadata
     id="metadata7">
    <rdf:RDF>
      <cc:Work
         rdf:about="">
        <dc:format>image/svg+xml</dc:format>
        <dc:type
           rdf:resource="http://purl.org/dc/dcmitype/StillImage" />
        <dc:title />
      </cc:Work>
    </rdf:RDF>
  </metadata>
  <g
     inkscape:label="Livello 1"
     inkscape:groupmode="layer"
     id="layer1"
     transform="translate(405.63952,92.33832)">
    <g
       id="g4858"
       inkscape:export-filename="..\..\..\Users\Pc_01\Desktop\g4858.svg"
       inkscape:export-xdpi="90"
       inkscape:export-ydpi="90"
       transform="translate(-781.53907,-85.144222)">
      <path
         style="fill:#de573a;fill-opacity:1"
         d="m 501.46912,20.880367 v 10.050659 c -1.4e-4,8.498068 0.0544,10.336388 0.36072,11.898194 0.19923,1.015912 0.42976,1.895856 0.51086,1.955566 0.0811,0.05976 0.32372,1.038025 0.54016,2.173462 0.21643,1.135429 0.46143,2.111921 0.54383,2.171631 0.0824,0.05976 0.3274,1.038025 0.54382,2.173462 0.21643,1.135429 0.45959,2.113662 0.54199,2.173462 0.0824,0.05976 0.32741,1.038025 0.54383,2.173462 0.21644,1.135428 0.50088,2.133798 0.63171,2.219238 0.36725,0.239849 0.33291,51.119737 -0.0348,51.487427 -0.20636,0.20644 -0.271,2.10319 -0.271,7.94312 v 7.67028 h -2.39135 -2.38953 v 3.91297 3.91113 h -15.2124 -15.21057 v -4.22424 -4.22425 l -1.01807,-0.1538 c -0.96987,-0.14544 -2.92785,0.17707 -3.43689,0.56579 -0.11953,0.0913 -0.85275,0.33851 -1.62964,0.54932 -0.77687,0.21082 -1.51012,0.45582 -1.62964,0.54382 -0.11952,0.088 -0.85276,0.33299 -1.62964,0.54382 -0.77687,0.21082 -1.51013,0.454 -1.62964,0.542 -0.11953,0.088 -0.85276,0.333 -1.62963,0.54382 -0.77688,0.21083 -1.51195,0.45582 -1.63147,0.54382 -0.11952,0.088 -0.85277,0.33119 -1.62964,0.542 -0.77688,0.21083 -1.51011,0.45582 -1.62964,0.54382 -0.1195,0.088 -0.85277,0.333 -1.62964,0.54382 -0.77688,0.21082 -1.51012,0.45399 -1.62964,0.54199 -0.11952,0.088 -0.85276,0.33299 -1.62964,0.54383 -0.77688,0.2108 -1.51012,0.45582 -1.62964,0.54382 -0.11951,0.088 -0.85276,0.33299 -1.62963,0.54382 -0.77687,0.2108 -1.51012,0.454 -1.62964,0.542 -0.11953,0.088 -0.85277,0.333 -1.62964,0.54382 -0.77688,0.21081 -1.51195,0.45582 -1.63147,0.54382 -0.11951,0.088 -0.85276,0.33117 -1.62964,0.54199 -0.77687,0.21082 -1.51013,0.45583 -1.62964,0.54383 -0.11953,0.088 -0.85275,0.333 -1.62964,0.54382 -0.77688,0.21082 -1.51012,0.45399 -1.62964,0.54199 -0.11952,0.088 -0.85276,0.33301 -1.62964,0.54383 -0.77686,0.21082 -1.51012,0.45582 -1.62963,0.54382 -0.11953,0.088 -0.85277,0.333 -1.62964,0.54382 -0.77689,0.21082 -1.51011,0.454 -1.62964,0.542 -0.11951,0.088 -0.85277,0.333 -1.62964,0.54382 -0.77688,0.21082 -1.51012,0.45376 -1.62964,0.54016 -0.11951,0.0864 -0.80449,0.32151 -1.5216,0.52185 -0.71712,0.20035 -1.61191,0.50485 -1.98853,0.67749 -0.37661,0.17264 -0.88989,0.31494 -1.14075,0.31494 h -0.45593 v 63.12744 15.59876 l -4.00818,40.57251 c -0.67397,30.97519 4.35639,40.81579 25.97534,63.0542 21.79735,22.42424 54.26035,33.15308 85.5304,33.15308 31.14616,0 63.53012,-10.64992 85.30518,-32.92054 21.59168,-22.08974 26.70894,-31.78295 26.21338,-62.63672 l -2.07642,-22.71972 c 0,0 -6.84114,0.50762 -17.52319,0.33142 -0.09,-2.99735 -0.19939,-9.04601 -0.271,-19.88159 -0.14303,-21.64966 -0.12571,-23.97904 0.1886,-24.66248 0.19089,-0.41507 0.51193,-1.34099 0.71228,-2.05811 0.20035,-0.71712 0.43362,-1.40207 0.52002,-1.5216 0.0864,-0.1195 0.32935,-0.85277 0.54016,-1.62964 0.21083,-0.77688 0.45582,-1.51011 0.54382,-1.62964 0.088,-0.11952 0.33301,-0.85277 0.54383,-1.62964 0.21083,-0.77689 0.45582,-1.51012 0.54382,-1.62964 0.088,-0.11951 0.33117,-0.85277 0.54199,-1.62964 0.21081,-0.77686 0.45582,-1.51012 0.54382,-1.62963 0.088,-0.11952 0.33301,-0.85458 0.54383,-1.63147 0.21081,-0.77687 0.45928,-1.51012 0.55298,-1.62964 0.0937,-0.11953 0.24209,-4.98398 0.32959,-10.81055 l 0.1593,-10.59448 h -7.63367 -7.63184 v 4.45495 4.45496 h -0.97778 -0.97778 v -4.45496 -4.45495 h -4.88892 -4.89075 v 4.46411 4.46228 l -2.00866,-0.0623 -2.0105,-0.0623 -0.0586,-4.40003 -0.0586,-4.40185 h -5.10315 -5.10132 v 4.45495 4.45496 h -2.82531 -2.82532 v -4.45496 -4.45495 h -4.74609 -4.74427 l -0.14465,-9.9408 c -0.0791,-5.46801 -0.14451,-14.94796 -0.14465,-21.06628 -1.7e-4,-7.18145 -0.0758,-11.17246 -0.21607,-11.25916 -0.2685,-0.16599 -0.30509,-52.044066 -0.0366,-52.044066 0.0995,0 0.35931,-0.978271 0.57861,-2.173462 0.21929,-1.195199 0.46433,-2.173462 0.54383,-2.173462 0.0795,0 0.32451,-0.978271 0.54382,-2.173462 0.21929,-1.19519 0.46249,-2.173462 0.54199,-2.173462 0.0795,0 0.32452,-0.97644 0.54383,-2.17163 0.21929,-1.19519 0.46432,-2.173462 0.54382,-2.173462 0.0795,0 0.32451,-0.978271 0.54382,-2.173462 0.21929,-1.195191 0.46309,-2.173462 0.54199,-2.173462 0.48038,0 0.65186,-3.382727 0.65186,-12.791748 V 20.880367 h -5.97473 -5.97656 v 3.806763 3.808594 l -4.18396,-0.05859 -4.18213,-0.06042 -0.0604,-3.748169 -0.0586,-3.748169 h -5.31372 -5.31372 l -0.0604,3.748169 -0.0586,3.748169 -4.18396,0.06042 -4.18213,0.05859 V 24.68713 20.880367 h -5.75867 -5.75866 v 3.803101 3.8031 h -3.91297 -3.91113 v -3.8031 -3.803101 h -5.65064 z"
         id="path5315-0" />
      <path
         d="m 525.73812,379.06571 v 0 c 78.30652,0 141.28525,-64.42082 139.51113,-142.70751 L 644.58424,3.0963067 H 408.14083 L 386.24682,235.56777 c -2.22509,78.58651 60.87506,143.49794 139.4913,143.49794 z"
         style="fill:none;stroke:#24704a;stroke-width:20.5808;stroke-linecap:butt;stroke-linejoin:miter;stroke-miterlimit:10;stroke-dasharray:none;stroke-opacity:1"
         id="path5264-4"
         inkscape:connector-curvature="0" />
      <path
         d="M 525.73812,378.11175 V 718.33613"
         style="fill:#ffffff;stroke:#24704a;stroke-width:20.1496;stroke-linecap:butt;stroke-linejoin:miter;stroke-miterlimit:10;stroke-dasharray:none;stroke-opacity:1"
         id="path5272-6"
         inkscape:connector-curvature="0" />
      <path
         d="m 632.28435,713.1347 c 0,0 -0.83255,-0.30725 -2.39357,-0.77556 -1.56103,-0.44105 -3.85053,-1.2067 -6.76197,-1.90048 -2.91392,-0.75574 -6.45224,-1.6651 -10.51091,-2.45552 -2.02686,-0.42619 -4.18751,-0.87963 -6.46215,-1.35785 -2.27712,-0.37663 -4.67069,-0.77308 -7.16833,-1.1844 -2.49517,-0.40636 -5.09688,-0.83007 -7.79027,-1.27112 -2.69091,-0.34937 -5.47598,-0.71113 -8.33538,-1.0828 -2.86188,-0.30725 -5.80057,-0.62194 -8.80617,-0.94653 -3.00312,-0.25274 -6.07313,-0.51043 -9.19519,-0.77308 -6.24162,-0.42123 -12.69386,-0.80281 -19.24769,-0.98617 -3.27816,-0.15363 -6.58109,-0.1561 -9.89889,-0.20071 -3.3178,-0.0545 -6.64551,-0.0867 -9.9757,-0.0198 -6.66038,0.0173 -13.31828,0.22548 -19.87459,0.46831 -6.55383,0.32212 -13.00607,0.65167 -19.2477,1.1844 -3.12205,0.21805 -6.19207,0.50795 -9.19518,0.82016 -3.0056,0.28742 -5.94429,0.58724 -8.80617,0.95396 -5.72129,0.61202 -11.13284,1.55607 -16.12813,2.28454 -4.9928,0.67397 -9.57181,1.67253 -13.628,2.4357 -4.05867,0.71609 -7.597,1.66262 -10.51091,2.31428 -2.91144,0.64424 -5.20094,1.38263 -6.76197,1.77412 -1.56103,0.46831 -2.39357,0.71857 -2.39357,0.71857 l -2.25234,0.67644 c -4.14044,1.24387 -6.48693,5.60731 -5.24554,9.74774 1.01838,3.38718 4.133,5.5751 7.49788,5.57758 h 213.09244 c 4.27672,0 7.74566,-3.46895 7.74566,-7.74567 0,-3.33019 -2.10119,-6.16977 -5.04979,-7.26496 l -2.69587,-0.99113 z"
         style="fill:#24704a;fill-opacity:1;fill-rule:nonzero;stroke:none"
         id="path5276-1"
         inkscape:connector-curvature="0" />
    </g>
    <g
       id="layer1-5"
       inkscape:label="Layer 1"
       transform="matrix(0.15295846,0,0,0.15295846,319.70542,-655.18627)"
       inkscape:export-filename="..\..\..\Users\Pc_01\Desktop\layer1-5.png"
       inkscape:export-xdpi="90"
       inkscape:export-ydpi="90">
      <g
         transform="translate(6.60791,22.176024)"
         id="g4814">
        <path
           inkscape:export-ydpi="90"
           inkscape:export-xdpi="90"
           style="fill:none;fill-opacity:1;fill-rule:nonzero;stroke:none;stroke-width:24.6237;stroke-miterlimit:4;stroke-dasharray:none;stroke-opacity:1"
           d="M 56.39502,526.43168 A 436.99707,436.99707 0 0 1 493.3921,89.434631 436.99707,436.99707 0 0 1 930.38916,526.4317"
           id="path4783"
           inkscape:connector-curvature="0" />
        <text
           inkscape:export-ydpi="90"
           inkscape:export-xdpi="90"
           id="text4207"
           style="font-style:normal;font-weight:normal;font-size:30px;line-height:0%;font-family:sans-serif;text-align:center;letter-spacing:0px;word-spacing:0px;writing-mode:lr-tb;text-anchor:middle;fill:#24704a;fill-opacity:1;stroke:none;stroke-width:1px;stroke-linecap:butt;stroke-linejoin:miter;stroke-opacity:1"
           xml:space="preserve"><textPath
             id="textPath4213"
             startOffset="50%"
             xlink:href="#path4783"><tspan
               id="tspan4209"
               style="fill:#24704a;fill-opacity:1"><tspan
                 x="91.302246"
                 y="-28.73509"
                 style="font-style:normal;font-variant:normal;font-weight:normal;font-stretch:normal;font-size:90px;font-family:MostraOneBold;-inkscape-font-specification:MostraOneBold;text-align:center;text-anchor:middle;fill:#24704a;fill-opacity:1"
                 id="tspan4211">pro-loco umbertide</tspan></tspan></textPath></text>
      </g>
    </g>
  </g>
</svg>
