<?xml version="1.0" encoding="UTF-8" standalone="no"?>
<!-- Created with Inkscape (http://www.inkscape.org/) -->

<svg
   width="92.948204mm"
   height="127.934mm"
   viewBox="0 0 329.34403 453.30945"
   id="svg2"
   version="1.1"
   inkscape:version="1.3.2 (091e20e, 2023-11-25, custom)"
   sodipodi:docname="locandina2024.svg"
   inkscape:export-filename="C:\Users\Pc_01\Desktop\manifesto.png"
   inkscape:export-xdpi="90"
   inkscape:export-ydpi="90"
   xmlns:inkscape="http://www.inkscape.org/namespaces/inkscape"
   xmlns:sodipodi="http://sodipodi.sourceforge.net/DTD/sodipodi-0.dtd"
   xmlns:xlink="http://www.w3.org/1999/xlink"
   xmlns="http://www.w3.org/2000/svg"
   xmlns:svg="http://www.w3.org/2000/svg"
   xmlns:rdf="http://www.w3.org/1999/02/22-rdf-syntax-ns#"
   xmlns:cc="http://creativecommons.org/ns#"
   xmlns:dc="http://purl.org/dc/elements/1.1/">
  <defs
     id="defs4" />
  <sodipodi:namedview
     id="base"
     pagecolor="#ffffff"
     bordercolor="#666666"
     borderopacity="1.0"
     inkscape:pageopacity="1"
     inkscape:pageshadow="2"
     inkscape:zoom="0.53740116"
     inkscape:cx="435.42891"
     inkscape:cy="946.22051"
     inkscape:document-units="px"
     inkscape:current-layer="layer1"
     showgrid="true"
     inkscape:window-width="1920"
     inkscape:window-height="1017"
     inkscape:window-x="-8"
     inkscape:window-y="-8"
     inkscape:window-maximized="1"
     inkscape:showpageshadow="false"
     inkscape:pagecheckerboard="1"
     inkscape:deskcolor="#d1d1d1" />
  <metadata
     id="metadata7">
    <rdf:RDF>
      <cc:Work
         rdf:about="">
        <dc:format>image/svg+xml</dc:format>
        <dc:type
           rdf:resource="http://purl.org/dc/dcmitype/StillImage" />
        <dc:title />
      </cc:Work>
    </rdf:RDF>
  </metadata>
  <g
     inkscape:label="Livello 1"
     inkscape:groupmode="layer"
     id="layer1"
     transform="translate(2521.3833,-77.55719)">
    <path
       style="fill:#de573a;fill-opacity:1"
       d="m -2192.0393,169.57437 -4.8905,-0.49267 c -2.6897,-0.27042 -11.2812,-0.74907 -19.0922,-1.06382 -11.624,-0.46846 -14.4326,-0.80326 -15.4733,-1.8439 -0.6993,-0.69931 -5.9273,-7.52257 -11.6176,-15.16413 -5.6903,-7.64162 -10.585,-14.17206 -10.8774,-14.51086 -0.2924,-0.3388 -3.5755,7.31209 -7.2959,17.00199 -3.7204,9.68989 -7.0718,17.99509 -7.4468,18.45464 -0.3751,0.45955 -8.6867,3.57311 -18.4703,6.92034 -9.7837,3.34729 -17.7881,6.33329 -17.7881,6.63536 0,0.30202 0.3115,0.66498 0.6931,0.80663 0.6418,0.23828 4.3909,3.26394 22.5663,18.21314 l 6.7959,5.58965 0.057,19.0898 c 0.031,10.49981 0.164,19.19819 0.2947,19.32889 0.1307,0.1307 7.4592,-4.45515 16.2859,-10.19032 8.8267,-5.73518 16.4078,-10.42701 16.8474,-10.42701 0.4396,0 8.7875,2.45814 18.5513,5.46286 9.7637,3.00471 17.9019,5.31394 18.0839,5.13199 0.182,-0.18195 -1.907,-8.63912 -4.6417,-18.79396 l -4.9726,-18.4631 7.0495,-10.04662 c 3.8772,-5.52568 8.9148,-12.65492 11.195,-15.84276 l 4.1466,-5.79614 z m -19.4654,9.27381 -7.2222,10.22293 -7.2234,10.22414 3.2627,11.80117 c 1.794,6.49098 3.1621,11.92097 3.0406,12.06682 -0.1215,0.14578 -5.3845,-1.33221 -11.6949,-3.28447 -6.3104,-1.95233 -11.7367,-3.54893 -12.0584,-3.54893 -0.3217,0 -4.7613,2.7984 -9.8667,6.21877 -5.1054,3.42037 -9.7898,6.41303 -10.4101,6.65106 -0.9596,0.36823 -1.1278,-1.4169 -1.1278,-11.97143 v -12.40372 l -9.6602,-7.84652 c -5.3132,-4.31547 -9.6603,-7.93869 -9.6603,-8.05179 0,-0.11301 5.3035,-2.00052 11.7855,-4.19495 l 11.7855,-3.98967 4.201,-11.23001 c 2.3108,-6.1766 4.3974,-11.34612 4.6369,-11.48721 0.2394,-0.14115 3.8452,4.22553 8.0119,9.7037 l 7.576,9.96089 5.5619,0.0809 c 3.0591,0.045 8.5992,0.30579 12.312,0.57961 z M -2222.3,280.81422 c 0,-0.27097 -2.0525,-0.25491 -4.5608,0.0362 -4.4548,0.51699 -4.6309,0.46521 -7.6279,-2.24237 -1.6875,-1.52456 -3.2473,-2.77128 -3.4656,-2.77128 -0.2183,0 -0.6351,1.90612 -0.9262,4.23601 -0.511,4.08981 -0.6608,4.31009 -4.3387,6.37574 -2.0952,1.17679 -3.8105,2.39447 -3.8109,2.70607 -5e-4,0.31166 1.6966,1.42663 3.7711,2.47785 3.2652,1.65463 3.8414,2.30407 4.2915,4.84218 1.0594,5.97358 0.9935,5.9339 4.6056,2.79181 3.058,-2.66177 3.5912,-2.84448 7.6738,-2.65535 2.4131,0.11178 4.3881,-0.0102 4.3881,-0.27049 0,-0.26029 -0.6955,-1.83672 -1.5456,-3.50304 -1.9265,-3.7763 -1.9265,-4.7247 0,-8.50099 0.8501,-1.66632 1.5456,-3.2512 1.5456,-3.52237 z m -3.8242,12.79738 h -2.8691 c -1.9007,0 -3.485,0.57943 -4.6973,1.71832 -1.5511,1.45728 -1.9383,1.54538 -2.5491,0.57961 -0.3961,-0.62642 -0.7252,-1.76375 -0.7317,-2.52736 -0.01,-0.7636 -1.0532,-1.98082 -2.3257,-2.70486 -1.2725,-0.7241 -2.316,-1.50203 -2.3185,-1.72917 0,-0.22716 1.0385,-1.03024 2.3137,-1.78352 1.4961,-0.8838 2.3184,-1.99322 2.3184,-3.12871 0,-2.63815 0.7507,-2.90994 3.206,-1.16164 1.62,1.15354 2.8483,1.44448 4.5318,1.0747 2.5275,-0.55507 2.8027,0.003 1.4599,2.94999 -0.6638,1.45691 -0.5748,2.38813 0.407,4.28672 z m -15.8283,143.05942 c -0.1975,-0.31963 -7.8296,-4.1883 -16.9597,-8.59639 l -16.5999,-8.01436 -4.4183,-17.8219 c -2.4302,-9.80172 -4.5916,-18.1281 -4.8023,-18.50295 -0.2108,-0.37484 -6.3329,5.49808 -13.6053,13.05096 l -13.2224,13.73321 -16.2291,-1.27515 c -8.9261,-0.70091 -17.3595,-1.27043 -18.7409,-1.26549 -1.3814,0.005 -2.5116,0.23401 -2.5116,0.50837 0,0.27437 3.8254,7.71586 8.501,16.53709 4.6755,8.82124 8.501,16.33823 8.501,16.70373 0,0.3655 -3.1098,8.31154 -6.9107,17.65889 -3.8009,9.34733 -6.557,17.12016 -6.1246,17.27247 0.4324,0.15232 8.9256,-1.19314 18.8749,-2.98984 l 18.0899,-3.26636 5.2298,4.58619 c 10.2626,8.99907 23.4528,19.75138 23.8016,19.40255 0.1951,-0.19509 1.403,-7.97865 2.6843,-17.29662 1.2814,-9.31797 2.4889,-17.65163 2.6832,-18.51865 0.2371,-1.05836 5.572,-4.82142 16.2352,-11.45098 8.7353,-5.43096 15.7215,-10.13515 15.5239,-10.45477 z m -20.1729,1.20994 -3.078,1.90306 c -11.6359,7.19665 -17.4153,10.91854 -17.7205,11.41235 -0.1941,0.31417 -1.0962,5.76145 -2.0057,12.10546 -0.9094,6.34402 -1.721,11.60413 -1.8028,11.68887 -0.082,0.0847 -4.2679,-3.306 -9.3028,-7.53498 -5.0349,-4.22897 -9.553,-7.68832 -10.0406,-7.68832 -0.4875,0 -5.8849,0.87629 -11.9931,1.94774 -6.1083,1.07144 -11.1864,1.85391 -11.2856,1.73884 -0.099,-0.11509 1.8511,-5.22409 4.3338,-11.35318 l 4.5138,-11.14427 -4.7154,-8.94898 c -2.5939,-4.92204 -5.2298,-9.7313 -5.8565,-10.68783 -1.1337,-1.73019 -1.1181,-1.73975 3.0067,-1.70624 2.2804,0.0185 7.7982,0.36251 12.2612,0.76316 l 8.1146,0.72814 8.6435,-9.01902 8.6435,-9.01782 0.5736,2.26653 c 0.3148,1.24686 1.6424,6.61484 2.9511,11.92796 l 2.3801,9.66022 11.1889,5.47855 z m -19.8264,60.17351 c -0.1331,-0.10647 -3.3498,0.1158 -7.1486,0.49388 l -6.907,0.68708 -4.8579,-4.81441 c -2.6716,-2.64785 -4.973,-4.66019 -5.1151,-4.47147 -0.1421,0.18873 -0.9347,3.2401 -1.7606,6.78027 l -1.5009,6.43612 -5.9894,3.16613 c -3.2941,1.74091 -5.9809,3.36473 -5.9712,3.6093 0.01,0.24459 2.4908,1.83665 5.5136,3.53685 3.0228,1.7002 5.7793,3.78681 6.1258,4.63691 0.3464,0.8501 1.027,4.06695 1.5118,7.14856 0.4848,3.08161 1.052,5.60293 1.2619,5.60293 0.2098,0 2.2935,-1.82579 4.6296,-4.0573 2.3362,-2.23151 4.6779,-4.30018 5.2045,-4.59705 0.5265,-0.29687 3.8898,-0.0688 7.4734,0.50716 3.5835,0.57597 6.6301,0.93559 6.7706,0.79939 0.1404,-0.13622 -0.9773,-3.09222 -2.4839,-6.56895 l -2.7387,-6.32141 3.1118,-6.18979 c 1.7118,-3.40466 3.0034,-6.27771 2.8703,-6.3842 z m -2.2605,-159.13884 c -0.01,-0.0425 -0.027,-0.0799 -0.057,-0.10989 -0.2401,-0.24014 -4.7397,-2.07486 -9.9995,-4.07782 l -9.5636,-3.64191 -3.5417,-10.38231 -3.5417,-10.38233 -6.8914,8.63745 -6.8913,8.63623 -10.7096,0.01 c -8.838,0.008 -10.6366,0.19868 -10.2953,1.08798 0.2274,0.59265 2.8558,4.76311 5.8408,9.26777 l 5.4278,8.19066 -3.049,9.47305 c -1.6769,5.21011 -3.0514,9.87891 -3.0538,10.37629 0,0.60393 2.756,0.14265 8.3041,-1.38866 13.2906,-3.6683 11.8064,-3.86722 21.2839,2.86788 4.5867,3.2595 8.501,5.76472 8.6978,5.56791 0.1968,-0.19681 0.6163,-5.01619 0.9334,-10.70956 l 0.5772,-10.35093 6.9554,-5.31674 c 3.8254,-2.92375 7.6294,-5.79007 8.4539,-6.37092 0.7214,-0.50818 1.1775,-1.08645 1.1194,-1.38382 z m -4.5705,179.73443 -4.7009,-0.5458 c -4.6765,-0.54276 -4.7165,-0.53058 -7.675,2.3583 l -2.973,2.9041 -0.5107,-2.23996 c -0.2806,-1.23182 -0.7549,-3.28206 -1.0542,-4.55721 -0.3866,-1.64708 -1.4816,-2.83881 -3.7832,-4.11525 -1.7818,-0.98821 -3.2398,-2.10976 -3.2398,-2.49234 0,-0.38259 1.5401,-1.39776 3.4233,-2.25566 3.4953,-1.59227 3.839,-2.11184 4.736,-7.17272 0.2825,-1.59393 0.7537,-2.89806 1.0481,-2.89806 0.2944,0 1.7339,1.24669 3.1987,2.77128 2.5556,2.65987 2.8442,2.76002 7.1353,2.46094 3.8263,-0.26669 4.4003,-0.13741 3.9776,0.8984 -2.9594,7.25162 -2.9593,7.25153 -1.2256,11.17084 z m -6.7489,-178.09944 -5.4024,4.03072 c -5.2329,3.90344 -5.4186,4.1551 -5.8831,8.02161 -0.2638,2.19573 -0.4829,5.29742 -0.4866,6.89136 0,1.59393 -0.1791,2.89806 -0.3901,2.89806 -0.211,0 -2.7639,-1.69935 -5.6741,-3.77593 l -5.2914,-3.77594 -6.7284,1.7968 c -6.669,1.78087 -6.7222,1.78205 -6.226,0.21856 0.2753,-0.86743 1.1511,-3.85253 1.9466,-6.63416 l 1.4466,-5.05712 -2.8148,-4.56083 c -1.548,-2.50807 -3.1035,-4.73795 -3.4559,-4.9557 -2.1397,-1.32238 2.852,-2.59878 10.2338,-2.61671 2.4683,-0.006 3.1891,-0.54237 6.8322,-5.08852 2.2399,-2.79525 4.204,-4.95017 4.3652,-4.78905 0.1611,0.16118 1.2598,3.05581 2.4416,6.43371 l 2.1494,6.14268 6.4687,2.41023 z m -24.1433,-82.42704 c 0,-0.29912 -2.7887,-1.17654 -6.197,-1.95016 l -6.197,-1.40677 -2.9403,-6.27431 -2.9392,-6.27311 -3.0357,4.91947 c -1.6692,2.70585 -3.4704,5.377 -4.0029,5.93621 -0.5374,0.56421 -3.7189,1.25612 -7.1486,1.55529 -3.3991,0.29651 -6.173,0.75522 -6.1632,1.01915 0.01,0.26394 1.8572,2.68652 4.1044,5.38316 l 4.085,4.90256 -1.1109,6.13908 c -0.6114,3.3764 -0.9521,6.29905 -0.7559,6.49529 0.1962,0.19623 2.9506,-0.69872 6.1209,-1.99001 l 5.7648,-2.34864 5.6778,3.12146 c 3.1227,1.71652 5.8509,3.12145 6.063,3.12145 0.2121,0 0.1459,-2.95789 -0.1474,-6.57257 l -0.5325,-6.57257 4.6768,-4.33019 c 2.5726,-2.38177 4.6779,-4.57568 4.6779,-4.87479 z m -6.7476,1.88857 -3.1951,2.8872 c -2.9345,2.65107 -3.1952,3.2018 -3.1952,6.75249 0,2.12637 -0.1547,3.8665 -0.3429,3.8665 -0.1882,0 -1.6292,-0.75994 -3.2024,-1.68811 -2.8139,-1.66021 -2.9222,-1.66608 -6.6848,-0.32966 -2.1035,0.74709 -3.9772,1.20552 -4.1648,1.01795 -0.1876,-0.18758 0.032,-2.00553 0.4879,-4.04039 0.7635,-3.40726 0.6865,-3.85842 -0.9781,-5.70557 -4.0896,-4.53787 -4.0965,-4.47937 0.5083,-5.05471 3.9252,-0.4904 4.3628,-0.76023 6.4784,-4.01262 l 2.269,-3.48854 1.8487,3.71797 c 1.6832,3.38476 2.2214,3.82358 6.0098,4.89774 z m -7.1631,54.43051 c 0,-0.27438 -4.6006,-2.95321 -10.2229,-5.95311 l -10.2217,-5.4544 -2.304,-11.47393 c -1.2668,-6.31089 -2.4144,-11.62937 -2.5503,-11.81807 -0.1358,-0.18875 -2.411,1.7272 -5.0559,4.25654 -2.6449,2.52934 -6.553,6.24186 -8.6845,8.24982 l -3.875,3.65036 -9.6493,-1.13749 c -5.3069,-0.62568 -10.6046,-1.13855 -11.7734,-1.14474 -1.1689,-0.004 -2.1253,0.17269 -2.1253,0.39124 0,0.21861 2.2894,4.96793 5.0885,10.55379 l 5.0898,10.15531 -5.0849,11.18412 -5.0849,11.18291 3.2808,-0.52769 c 1.8039,-0.29027 7.2133,-1.04503 12.021,-1.67726 l 8.7412,-1.14956 8.2607,7.56878 c 4.5435,4.16274 8.4835,7.87488 8.7558,8.24983 0.6487,0.89316 1.0175,-0.49842 2.9428,-11.11408 0.8865,-4.88811 1.7785,-9.64024 1.9827,-10.55983 0.2646,-1.19156 3.2585,-3.29047 10.4198,-7.30312 5.5268,-3.09672 10.049,-5.85494 10.049,-6.12942 z m -13.1391,0.0133 c -4e-4,0.22406 -2.805,1.92111 -6.232,3.77111 -3.725,2.01081 -6.4743,4.0312 -6.8358,5.02332 -0.3327,0.91279 -1.0543,4.35556 -1.6048,7.64968 -0.5506,3.29412 -1.227,5.98934 -1.5034,5.98934 -0.2764,0 -2.0537,-1.59322 -3.9486,-3.54047 -6.4463,-6.62422 -6.5577,-6.66649 -14.5821,-5.47856 -3.8602,0.57144 -7.1593,0.89732 -7.3321,0.72452 -0.1729,-0.17286 1.071,-3.27007 2.764,-6.8829 1.693,-3.61283 2.9084,-6.97989 2.7012,-7.48185 -0.2071,-0.5019 -1.6402,-3.65632 -3.1842,-7.0109 l -2.8075,-6.09922 5.2467,0.51682 c 2.8859,0.28477 6.2912,0.69349 7.5663,0.90685 2.0487,0.34282 2.9609,-0.24758 7.8393,-5.06558 l 5.5208,-5.45198 1.2716,6.00865 c 0.6995,3.305 1.44,6.79872 1.6458,7.7632 0.2751,1.289 2.1101,2.61351 6.9252,5.00158 3.6028,1.78675 6.55,3.43234 6.5496,3.65639 z m -24.0479,107.92519 c -0.1621,-0.12981 -7.0481,-0.72566 -15.3018,-1.32466 l -15.0059,-1.08919 -6.0534,-8.33435 c -3.3289,-4.58356 -6.0521,-8.48967 -6.0521,-8.68092 0,-0.19123 2.334,0.499 5.1876,1.53477 2.8535,1.03576 5.3366,1.73586 5.5171,1.5553 0.3379,-0.33784 6e-4,-2.08053 -3.0152,-15.59764 l -1.7581,-7.88394 4.9219,-6.41318 c 2.7071,-3.5274 5.9516,-7.71748 7.2101,-9.31125 1.2585,-1.59377 2.1052,-3.07992 1.8826,-3.30259 -0.2227,-0.22266 -5.4105,-0.7984 -11.5283,-1.27877 -6.1178,-0.48037 -11.5808,-1.22983 -12.1405,-1.66518 -0.5597,-0.43534 -3.8383,-4.90208 -7.2862,-9.92708 -3.448,-5.025 -6.4686,-9.12914 -6.7115,-9.11925 -0.2428,0.01 -2.4679,4.97808 -4.946,11.04042 l -4.5065,11.02232 -4.8772,1.39711 c -6.3849,1.82854 -7.5099,1.21132 -9.6795,-5.3083 -0.9209,-2.76718 -1.7682,-5.03056 -1.8826,-5.03056 -0.1143,0 -1.7342,1.91273 -3.5996,4.2505 l -3.3919,4.2505 h -5.2238 c -2.8736,0 -5.225,0.18969 -5.225,0.42263 0,0.23294 1.237,2.35757 2.7484,4.72023 l 2.7471,4.29517 -1.5831,4.68883 c -0.8709,2.57876 -1.424,4.84793 -1.2293,5.04264 0.1948,0.19478 2.5086,-0.18803 5.1417,-0.85131 l 4.7878,-1.20632 4.5126,3.06471 c 3.7151,2.52291 4.516,2.82027 4.5258,1.68329 0.028,-3.25042 1.2265,-3.53513 4.1334,-0.98293 l 2.8099,2.46698 v 12.24795 12.24916 l 10.4523,-6.26103 c 9.3578,-5.60524 10.6509,-6.17111 12.3458,-5.39886 l 1.8934,0.86217 -3.5308,8.33436 c -1.9413,4.58327 -4.0973,9.82021 -4.7915,11.63815 l -1.2619,3.305 -12.3844,3.89669 c -6.8111,2.14301 -13.3618,4.31363 -14.5579,4.82408 l -2.1748,0.92859 11.6418,9.87153 11.6418,9.87275 v 11.09838 11.09839 l -3.0659,-0.41176 -3.0659,-0.41057 3.0779,7.53497 3.078,7.53619 -3.4897,6.5605 c -1.9195,3.60823 -3.4898,6.79063 -3.4898,7.07248 0,0.28187 3.5148,0.20199 7.8115,-0.1775 l 7.8127,-0.6895 5.6814,5.64278 c 3.8665,3.8407 5.7969,5.28925 6.0437,4.53426 0.1995,-0.61014 0.9304,-3.54289 1.6241,-6.51824 0.6938,-2.97534 1.415,-5.94825 1.6024,-6.60517 0.1875,-0.65691 3.4691,-2.72732 7.2935,-4.60189 3.8244,-1.87454 6.9501,-3.59772 6.9445,-3.82907 0,-0.23135 -2.5266,-1.89472 -5.6029,-3.69624 -3.0764,-1.80151 -6.0482,-3.57378 -6.604,-3.93774 -0.5558,-0.36397 -1.4521,-3.64438 -1.9912,-7.29106 -1.4291,-9.66529 -1.446,-9.66226 16.5407,-3.73609 7.8061,2.57191 14.3086,4.56146 14.4493,4.42076 0.1407,-0.14071 -1.324,-6.64619 -3.2543,-14.45652 -1.9303,-7.81033 -3.3623,-14.58512 -3.1819,-15.05545 0.1805,-0.47033 4.2323,-6.14105 9.0034,-12.60055 4.771,-6.45951 8.5423,-11.85006 8.3802,-11.97988 z m -15.367,7.63278 -5.7913,7.71248 c -3.7814,5.03712 -5.6444,8.17216 -5.3699,9.03714 0.9078,2.85996 4.2273,17.10532 4.0308,17.29783 -0.1148,0.11241 -4.2673,-1.15733 -9.2268,-2.82199 l -9.0166,-3.02606 -6.3503,3.89669 c -3.4924,2.1434 -7.0762,4.40649 -7.9637,5.02814 -0.8875,0.62166 -1.8989,1.13024 -2.2472,1.13024 -0.3483,0 -0.4141,-4.2846 -0.1473,-9.52135 l 0.4842,-9.52135 -6.8274,-5.67055 c -3.7555,-3.11845 -7.2598,-6.0592 -7.7873,-6.53514 -0.7267,-0.65568 1.3332,-1.60996 8.501,-3.93654 l 9.4598,-3.06954 3.4776,-8.68333 c 1.9128,-4.77545 3.7312,-8.60089 4.0416,-8.50099 0.3105,0.0999 2.9379,3.48613 5.8384,7.5241 l 5.2733,7.34177 7.6871,0.62067 c 4.2274,0.34144 8.6418,0.8631 9.81,1.15923 z m -6.9602,-186.00512 c 0,-0.0432 -6e-4,-0.0702 -0.013,-0.0809 -0.2016,-0.17169 -2.5394,-0.0916 -5.196,0.1775 -3.4903,0.35358 -4.8301,0.23388 -4.8301,-0.42988 0,-0.55315 -1.9218,-1.13693 -4.8301,-1.46714 -2.6566,-0.30158 -5.2627,-0.89835 -5.7913,-1.32587 -0.5286,-0.42752 -2.0322,-2.64839 -3.3412,-4.93637 -1.3091,-2.28797 -2.6331,-4.15993 -2.9416,-4.15993 -0.3084,0 -1.0004,1.21715 -1.5383,2.70486 -0.538,1.48764 -1.2332,2.70486 -1.5445,2.70486 -0.3112,0 -1.9237,-1.39107 -3.5839,-3.09127 -1.6602,-1.7002 -3.2326,-3.09127 -3.4934,-3.09127 -0.2608,0 -0.9311,2.34745 -1.4901,5.21652 -1.2143,6.23299 -1.9955,7.92138 -3.6648,7.92138 -1.131,0 -1.137,0.13057 -0.06,1.35243 0.7804,0.88571 1.0565,2.23292 0.7994,3.90394 -0.3614,2.34869 -1.0012,2.85632 -8.0409,6.38903 l -7.6473,3.83752 4.3169,-8.60725 4.3169,-8.60847 -4.9762,0.31637 -4.9762,0.31758 14.1969,-10.77598 c 7.8082,-5.92664 14.1969,-11.00998 14.1969,-11.29641 0,-0.28638 -7.9117,-3.45088 -17.5816,-7.03144 l -17.5816,-6.5098 -6.2043,-17.53692 c -3.4124,-9.64568 -6.3848,-17.71874 -6.6052,-17.93903 -0.2203,-0.22035 -5.601,6.16751 -11.9569,14.19449 -6.3559,8.02697 -12.2516,14.79123 -13.1017,15.0313 -0.8501,0.24007 -6.8491,0.4406 -13.3311,0.44679 v 0 l -11.7854,0.0109 v 9.46701 9.46702 l 4.5705,6.8648 c 2.5143,3.77592 4.4296,7.2536 4.2553,7.72817 -2.4124,6.56796 -8.8294,30.07439 -8.8294,32.34363 0,2.77447 0.1381,2.97004 1.7388,2.45973 0.9564,-0.30486 2.0866,-0.58888 2.5117,-0.63154 1.4103,-0.14127 19.6687,10.72109 20.0051,11.90139 0.1817,0.63761 1.2899,6.97102 2.4621,14.07495 l 2.1313,12.91692 1.7377,-1.32466 c 0.9559,-0.72818 5.7419,-4.90093 10.6347,-9.2726 l 8.8958,-7.94795 10.6842,1.58911 c 19.1851,2.85362 17.5735,2.73374 17.0068,1.25704 -0.2779,-0.72435 -2.8245,-6.53543 -5.6596,-12.91451 -4.8997,-11.02403 -5.1012,-11.70963 -4.0682,-13.82498 l 1.0868,-2.22548 7.7281,4.5717 c 4.2505,2.51425 7.9829,4.66437 8.2945,4.77819 0.3117,0.11382 1.3233,4.98951 2.2485,10.83393 0.9252,5.84442 1.9413,10.62624 2.258,10.62624 0.3168,0 4.0924,-3.15603 8.3899,-7.01332 l 7.814,-7.01332 10.5284,1.62413 c 5.7909,0.89344 10.6517,1.50205 10.8013,1.35243 0.1496,-0.14961 -1.6419,-4.71052 -3.9812,-10.13478 l -4.2529,-9.86187 4.8192,-9.54913 c 2.485,-4.92359 4.4017,-9.13157 4.4655,-9.77976 z m -6.2658,-102.17497 c -0.1126,-0.78995 -2.3142,-2.11168 -9.1024,-5.83235 -5.5443,-3.03891 -10.2895,-5.86408 -10.5453,-6.27794 -0.2558,-0.41386 -1.4054,-5.70182 -2.5551,-11.75045 -1.1498,-6.04857 -2.3723,-10.94167 -2.7158,-10.87379 -0.3434,0.0678 -4.36,3.60368 -8.926,7.85739 l -8.3018,7.73421 -11.1467,-1.45386 c -6.1307,-0.79953 -11.4307,-1.46618 -11.7782,-1.48164 -0.9258,-0.041 -0.1384,2.0246 4.6297,12.13324 4.9363,10.46519 5.0414,8.78077 -1.3923,22.28492 -3.5833,7.52125 -4.4724,10.12977 -3.1855,9.33902 0.3188,-0.19586 5.5877,-0.93031 11.7094,-1.63258 l 11.131,-1.27757 3.1662,2.93068 c 1.7416,1.61141 5.6514,5.32298 8.6881,8.24862 6.4123,6.17772 5.5992,6.94839 8.3453,-7.9069 1.0508,-5.6846 2.0117,-10.42944 2.1361,-10.54412 0.1244,-0.11475 4.2263,-2.38946 9.1144,-5.05592 4.8881,-2.66641 9.5222,-5.27606 10.2978,-5.79855 0.2337,-0.15747 0.3881,-0.31241 0.4262,-0.49147 0.01,-0.0485 0.012,-0.0983 0.01,-0.15094 z m -3.811,109.09891 c -0.021,0.3082 -1.1943,2.80971 -2.6082,5.55946 l -2.5709,4.99916 -0.5397,-3.45353 c -0.2967,-1.89965 -0.7118,-4.06486 -0.9226,-4.81079 -0.2108,-0.74592 0.076,-1.49755 0.6364,-1.67121 2.4687,-0.76466 6.0393,-1.13501 6.005,-0.62309 z m -1.024,24.63235 c 0,0.0324 -0.01,0.0547 -0.022,0.0664 -0.1884,0.1885 -2.7836,-0.0358 -5.7671,-0.49871 -2.9835,-0.46289 -5.9693,-0.84165 -6.6354,-0.84165 -0.6661,0 -3.3581,1.97338 -5.9821,4.38574 -5.4854,5.04291 -5.3726,5.10943 -6.8056,-4.00536 l -0.8513,-5.41577 -5.3457,-2.92342 c -2.9397,-1.60764 -5.5482,-3.25146 -5.7962,-3.65277 -0.248,-0.40131 2.186,-2.03408 5.4085,-3.62862 4.7041,-2.32761 6.0063,-3.35813 6.604,-5.2286 0.558,-1.74619 0.6542,-0.73212 0.3852,4.04643 -0.1974,3.50667 -0.2277,6.37574 -0.068,6.37574 0.1601,0 2.4991,-1.1933 5.1972,-2.65052 l 4.905,-2.64931 4.946,2.0697 4.9448,2.07091 2.601,6.10163 c 1.3413,3.14632 2.3194,5.89199 2.2811,6.37816 z m -1.4237,93.41192 c -0.1016,0.4437 -1.9449,3.13505 -4.2927,6.25258 l -4.5536,6.04609 1.7376,7.36713 c 0.9555,4.05184 1.6714,7.43225 1.5916,7.51202 -0.08,0.0798 -3.032,-0.87659 -6.5605,-2.12524 -3.5286,-1.24865 -6.9555,-2.27016 -7.6147,-2.27016 -0.6592,0 -3.7759,1.56496 -6.9264,3.47768 -3.1505,1.91273 -5.8897,3.47768 -6.0871,3.47768 -0.1975,0 -0.3616,-3.39074 -0.3647,-7.53497 v -7.53497 l -4.6949,-3.86409 c -2.5818,-2.12525 -5.0175,-4.25255 -5.4133,-4.72747 -1.0942,-1.31295 0.5527,-2.27521 7.1993,-4.2022 l 5.9688,-1.73038 2.8352,-6.84185 c 1.5599,-3.76332 3.048,-6.8336 3.3062,-6.82253 0.2583,0.011 2.4363,2.74131 4.8398,6.06661 l 4.3701,6.0461 7.198,0.54338 c 3.9591,0.29887 7.3174,0.66152 7.4625,0.80663 0.01,0.009 0.01,0.0284 0,0.058 z m -2.4597,121.52799 c 0,0.0276 0,0.0506 -0.014,0.07 -0.1922,0.31097 -2.1142,1.39159 -4.271,2.40177 -4.0827,1.91222 -4.052,1.8631 -5.807,9.60829 l -0.5084,2.2448 -3.7252,-3.66847 -3.7264,-3.66968 -5.1163,0.54822 c -2.8146,0.30144 -5.11,0.42022 -5.1006,0.26445 0.01,-0.15578 1.1058,-2.15156 2.4368,-4.43525 l 2.4198,-4.15268 -1.385,-3.8496 c -1.6859,-4.68825 -0.9778,-5.48633 4.2674,-4.812 3.2766,0.42123 3.7384,0.2455 7.0737,-2.69037 1.9626,-1.72758 3.7482,-3.14078 3.9679,-3.14078 0.2198,0 0.6347,2.19849 0.9226,4.88686 l 0.5241,4.88807 4.1889,2.50562 c 2.1598,1.29184 3.8133,2.58761 3.8532,3.00071 z m -2.7833,-245.10756 c 0,0.16427 -1.0433,0.29946 -2.3185,0.29946 -1.2751,0 -2.3184,-0.28857 -2.3184,-0.63999 0,-0.35123 1.0433,-0.48546 2.3184,-0.29826 1.2752,0.18715 2.3185,0.47445 2.3185,0.63879 z m -0.8212,-103.74111 -6.7802,3.66967 -6.7803,3.66847 -1.3923,7.39128 c -0.7657,4.06545 -1.5626,7.39248 -1.7714,7.39248 -0.2089,0 -2.7552,-2.29412 -5.6585,-5.09697 l -5.2793,-5.09576 -7.0665,0.91892 c -3.8869,0.50517 -7.2234,0.76189 -7.4142,0.57116 -0.1907,-0.19079 1.0284,-3.33866 2.7097,-6.9952 l 3.0575,-6.64865 -3.404,-6.99279 -3.4041,-6.994 2.8752,0.40452 c 1.5812,0.22288 4.9617,0.71506 7.512,1.09281 5.1816,0.76744 4.6754,1.02494 12.4291,-6.3371 l 3.9293,-3.73127 1.4804,7.54706 1.4816,7.54583 6.738,3.84477 z m -0.8851,115.07979 c 0.029,0.57063 0,0.97448 -0.1038,1.0747 -0.2004,0.20043 -1.4234,-0.18242 -2.717,-0.85131 -3.1006,-1.60338 -4.1109,-1.5394 -7.5325,0.47939 l -2.8751,1.69657 0.4661,-3.93654 c 0.389,-3.28509 0.2182,-4.16085 -1.0337,-5.2938 -2.139,-1.93575 -1.8954,-3.94145 0.5531,-4.556 1.7306,-0.43432 2.6145,0.0372 5.6295,3.00674 1.9671,1.93749 4.3088,3.52357 5.2032,3.52357 1.2555,0 1.745,0.63418 2.1482,2.78336 0.1436,0.76555 0.2334,1.50269 0.262,2.07332 z m -3.9691,-13.09202 c 0.068,0.61095 -0.6262,0.19188 -1.9683,-1.69295 -0.8965,-1.25895 -1.6301,-2.75153 -1.6301,-3.31587 0,-0.5644 0.9004,0.29937 2.0008,1.91876 1.0305,1.51648 1.5446,2.61489 1.5976,3.09006 z m -27.5558,-19.67183 c 0,0.27086 -4.3471,3.77295 -9.6602,7.78252 -8.8297,6.66342 -9.6602,7.5027 -9.6602,9.76044 0,2.65812 -1.0375,3.43356 -4.5077,3.37142 -1.5613,-0.0279 -4.4972,-2.36856 -12.0898,-9.63849 -6.4526,-6.17846 -10.2075,-9.26577 -10.5333,-8.65797 -0.2784,0.51946 -1.6271,6.16201 -2.997,12.53776 -1.37,6.37574 -2.7916,12.15478 -3.1577,12.84326 -0.507,0.9531 -8.7573,3.77232 -11.0405,3.77232 -0.189,0 1.21,-5.26231 3.1094,-11.6937 l 3.4536,-11.69369 -6.6209,-9.94037 c -3.6421,-5.46729 -6.6221,-10.11639 -6.6221,-10.3316 0,-0.321 21.4979,-0.77231 23.3572,-0.49026 0.3079,0.0467 3.9595,-4.2444 8.1146,-9.53585 4.1551,-5.29139 7.7391,-9.63504 7.9636,-9.65297 0.2246,-0.0181 1.5828,3.35814 3.0189,7.50236 1.4361,4.14422 3.2571,9.30602 4.0464,11.47152 l 1.4345,3.93774 11.1962,4.08145 c 6.1574,2.24488 11.195,4.30325 11.195,4.57411 z m -2.3185,177.57659 c 0,-0.21638 -2.2586,-0.63547 -5.0184,-0.931 l -5.0173,-0.53735 -2.3716,-4.14424 c -1.3043,-2.27959 -2.6297,-4.30427 -2.9452,-4.49925 -0.3154,-0.19497 -1.69,1.67706 -3.055,4.15994 -2.3549,4.28347 -2.6889,4.56091 -6.5279,5.4218 -2.2252,0.499 -4.5413,1.06695 -5.1477,1.26186 -0.771,0.24784 0.012,1.48577 2.6059,4.11888 l 3.7083,3.76628 -0.3236,5.09335 c -0.1784,2.8017 -0.097,5.09456 0.1823,5.09456 0.2791,0 2.3904,-1.00492 4.6912,-2.23272 l 4.1829,-2.23272 4.8132,2.18442 c 5.4921,2.49302 5.3548,2.6545 4.1213,-4.83374 -0.5809,-3.52683 -0.4966,-3.7537 2.752,-7.46735 1.8425,-2.10626 3.3496,-4.00634 3.3496,-4.22272 z m -5.1066,1.80284 -2.4271,2.51166 c -2.1653,2.24122 -2.3783,2.8653 -1.9816,5.79613 0.2446,1.80646 0.2372,3.28447 -0.017,3.28447 -0.2541,0 -1.6635,-0.57285 -3.1312,-1.27273 -2.5465,-1.21435 -2.794,-1.19839 -5.435,0.35984 l -2.7677,1.63258 v -3.60205 c 0,-2.83933 -0.4315,-4.05259 -2.0371,-5.72852 l -2.0371,-2.12645 2.2303,-0.49267 c 3.8876,-0.85769 4.1376,-1.03295 5.4653,-3.817 0.7156,-1.50078 1.5431,-2.7278 1.8378,-2.7278 0.2948,0 0.9797,1.07154 1.5227,2.38245 1.0368,2.50293 3.3377,3.80009 6.7441,3.80009 h 2.0334 z m -3.4402,-23.67237 c 0.041,1.27609 -0.2797,1.19525 -2.7508,-0.6895 -2.5715,-1.96141 -3.0689,-2.07097 -6.1825,-1.35847 -3.7194,0.85112 -3.7742,0.78878 -2.5117,-2.83286 0.7505,-2.15281 0.6343,-2.93283 -0.8223,-5.52444 l -1.6966,-3.01761 h 3.2519 c 2.7873,0 3.6177,-0.41412 5.813,-2.89806 2.133,-2.4133 2.5678,-2.63952 2.5986,-1.35243 0.02,0.8501 0.5432,2.51539 1.1617,3.70107 1.0545,2.02168 1.0181,2.19527 -0.5845,2.79905 -0.9398,0.3541 -2.8389,0.89017 -4.2203,1.19062 -1.3814,0.30045 -2.5028,0.77882 -2.4911,1.06383 0.012,0.28501 1.9039,2.08419 4.2046,3.99692 2.3007,1.91272 4.2046,4.1276 4.23,4.92188 z m -0.8199,-95.94652 c 0.01,0.10324 0,0.17739 -0.037,0.21132 -0.1407,0.13583 -2.9852,-0.23021 -6.3202,-0.81267 -11.6276,-2.03078 -11.1035,-2.16042 -18.5308,4.58257 l -6.5955,5.98813 -0.5252,-3.71677 c -0.5798,-4.10459 -2.6166,-14.37821 -2.8885,-14.56882 -0.095,-0.0665 -3.5634,-2.12865 -7.7076,-4.58257 -4.1442,-2.45385 -7.5321,-4.50583 -7.5277,-4.55962 0.021,-0.26362 18.2922,-5.15958 19.1888,-5.14165 1.5569,0.0306 29.4894,19.43898 30.385,21.11241 0.3205,0.5989 0.5324,1.17796 0.5591,1.48767 z m -7.7415,-31.66741 -0.4395,5.50995 c -0.2423,3.03031 -0.4802,5.56348 -0.5277,5.62949 -0.048,0.0661 -4.4329,-2.96702 -9.746,-6.74042 -8.0304,-5.7032 -10.0188,-6.78923 -11.7855,-6.43491 -1.1688,0.23438 -2.0962,0.13765 -2.06,-0.21494 0.1396,-1.36164 2.0583,-8.8168 2.3414,-9.09872 0.1642,-0.16352 3.0804,2.47855 6.4808,5.87221 l 6.1825,6.17046 4.777,-0.34656 z m -1.5988,210.7836 c 0.021,-0.64812 -0.8903,-0.76316 -2.8799,-0.76316 -2.4942,0 -3.3338,-0.41541 -4.6889,-2.31845 -2.1107,-2.96422 -2.7745,-2.91742 -3.8266,0.27048 -0.6947,2.1049 -1.4632,2.77077 -4.1128,3.56463 l -3.2592,0.97689 2.5081,2.09385 c 2.1112,1.76257 2.508,2.61578 2.508,5.39764 v 3.30501 l 2.7979,-1.65069 c 2.4203,-1.42805 3.1581,-1.53303 5.4616,-0.77282 1.4647,0.48364 2.8388,0.70287 3.0538,0.48784 0.2151,-0.21503 0.065,-1.57101 -0.3332,-3.01399 -0.6178,-2.23745 -0.4563,-2.95902 1.0988,-4.90256 1.0755,-1.3441 1.656,-2.17058 1.6724,-2.67467 z m -3.9293,1.45869 c -0.018,0.17833 -0.094,0.40129 -0.2173,0.67621 -0.3339,0.74384 -0.6314,2.33488 -0.6617,3.53564 -0.05,1.95321 -0.2761,2.13911 -2.1506,1.7642 -1.1524,-0.23047 -2.3035,-0.0827 -2.5576,0.32845 -0.7423,1.20113 -1.9163,0.8607 -1.9163,-0.55546 0,-0.71644 -0.7165,-2.06445 -1.5916,-2.99588 l -1.5903,-1.69416 1.926,-0.48301 c 1.0592,-0.26585 2.1456,-1.17833 2.4151,-2.02744 0.5804,-1.82889 1.5894,-2.00377 2.211,-0.38399 0.2446,0.63758 1.3624,1.15922 2.4839,1.15922 1.2434,0 1.7047,0.1412 1.6494,0.67622 z m -22.361,-367.926403 c -0.056,-0.121641 -0.219,-0.488458 -0.1678,-0.364671 0.05,0.121741 0.072,0.162471 0.1195,0.274109 0.016,0.03054 0.033,0.05997 0.048,0.09056 z m -5.0849,36.559113 c -0.017,0.0726 -0.039,0.14439 -0.054,0.21735 -0.011,0.0524 -0.014,0.2134 0,0.1606 0.026,-0.14767 0.041,-0.25754 0.059,-0.37795 z m -24.1505,-55.02462 -0.5253,-0.358637 c 0.1707,0.128084 0.3435,0.25273 0.5253,0.358637 z"
       id="path4492"
       inkscape:connector-curvature="0" />
    <g
       id="layer1-5"
       inkscape:label="Layer 1"
       transform="matrix(0.15295846,0,0,0.15295846,319.70542,-655.18627)"
       inkscape:export-filename="..\..\..\Users\Pc_01\Desktop\layer1-5.png"
       inkscape:export-xdpi="90"
       inkscape:export-ydpi="90">
      <g
         transform="translate(6.60791,22.176024)"
         id="g4814">
        <path
           inkscape:export-ydpi="90"
           inkscape:export-xdpi="90"
           style="fill:none;fill-opacity:1;fill-rule:nonzero;stroke:none;stroke-width:24.6237;stroke-miterlimit:4;stroke-dasharray:none;stroke-opacity:1"
           d="M 56.39502,526.43168 A 436.99707,436.99707 0 0 1 493.3921,89.434631 436.99707,436.99707 0 0 1 930.38916,526.4317"
           id="path4783"
           inkscape:connector-curvature="0" />
        <text
           inkscape:export-ydpi="90"
           inkscape:export-xdpi="90"
           id="text4207"
           style="font-style:normal;font-weight:normal;font-size:30px;line-height:0%;font-family:sans-serif;text-align:center;letter-spacing:0px;word-spacing:0px;writing-mode:lr-tb;text-anchor:middle;fill:#24704a;fill-opacity:1;stroke:none;stroke-width:1px;stroke-linecap:butt;stroke-linejoin:miter;stroke-opacity:1"
           xml:space="preserve"><textPath
             id="textPath4213"
             startOffset="50%"
             xlink:href="#path4783"><tspan
               id="tspan4209"
               style="fill:#24704a;fill-opacity:1"><tspan
                 x="91.302246"
                 y="-28.73509"
                 style="font-style:normal;font-variant:normal;font-weight:normal;font-stretch:normal;font-size:90px;font-family:MostraOneBold;-inkscape-font-specification:MostraOneBold;text-align:center;text-anchor:middle;fill:#24704a;fill-opacity:1"
                 id="tspan4211">pro-loco umbertide</tspan></tspan></textPath></text>
      </g>
    </g>
  </g>
</svg>
