<?xml version="1.0" encoding="UTF-8" standalone="no"?>
<!-- Created with Inkscape (http://www.inkscape.org/) -->

<svg
   width="268.08572mm"
   height="30.378401mm"
   viewBox="0 0 949.91004 107.64"
   id="svg2"
   version="1.1"
   inkscape:version="1.3.2 (091e20e, 2023-11-25, custom)"
   sodipodi:docname="text4144.svg"
   inkscape:export-filename="C:\Users\Pc_01\Desktop\manifesto.png"
   inkscape:export-xdpi="90"
   inkscape:export-ydpi="90"
   xmlns:inkscape="http://www.inkscape.org/namespaces/inkscape"
   xmlns:sodipodi="http://sodipodi.sourceforge.net/DTD/sodipodi-0.dtd"
   xmlns="http://www.w3.org/2000/svg"
   xmlns:svg="http://www.w3.org/2000/svg"
   xmlns:rdf="http://www.w3.org/1999/02/22-rdf-syntax-ns#"
   xmlns:cc="http://creativecommons.org/ns#"
   xmlns:dc="http://purl.org/dc/elements/1.1/">
  <defs
     id="defs4" />
  <sodipodi:namedview
     id="base"
     pagecolor="#ffffff"
     bordercolor="#666666"
     borderopacity="1.0"
     inkscape:pageopacity="1"
     inkscape:pageshadow="2"
     inkscape:zoom="0.38"
     inkscape:cx="380.26316"
     inkscape:cy="-6.5789474"
     inkscape:document-units="px"
     inkscape:current-layer="layer1"
     showgrid="true"
     inkscape:window-width="1920"
     inkscape:window-height="1017"
     inkscape:window-x="-8"
     inkscape:window-y="-8"
     inkscape:window-maximized="1"
     inkscape:showpageshadow="false"
     inkscape:pagecheckerboard="1"
     inkscape:deskcolor="#d1d1d1" />
  <metadata
     id="metadata7">
    <rdf:RDF>
      <cc:Work
         rdf:about="">
        <dc:format>image/svg+xml</dc:format>
        <dc:type
           rdf:resource="http://purl.org/dc/dcmitype/StillImage" />
        <dc:title />
      </cc:Work>
    </rdf:RDF>
  </metadata>
  <g
     inkscape:label="Livello 1"
     inkscape:groupmode="layer"
     id="layer1"
     transform="translate(1147.2501,525.59652)">
    <path
       style="font-size:130px;line-height:1.25;font-family:'Wine Date';-inkscape-font-specification:'Wine Date';letter-spacing:0px;word-spacing:0px;fill:#ffbe98;stroke-width:1px"
       d="m -1093.4301,-485.29652 q -14.3,0 -23.92,-6.24 -20.15,23.92 -20.15,45.11 0,8.45 4.68,13.65 4.68,5.07 12.09,5.07 11.83,0 20.15,-5.85 8.32,-5.98 12.48,-14.43 1.3,-2.6 2.86,-2.6 1.3,0 1.3,1.56 0,0.91 -0.78,2.73 -4.55,9.23 -13.78,15.86 -9.23,6.63 -22.23,6.63 -7.67,0 -13.78,-3.38 -5.98,-3.38 -9.36,-9.36 -3.38,-6.11 -3.38,-13.78 0,-10.4 6.5,-22.62 6.5,-12.22 17.68,-23.79 -3.9,-4.81 -4.55,-10.66 0,-2.21 1.95,-2.21 0.91,0 1.43,0.65 0.52,0.52 0.52,1.3 0.39,4.55 3.38,8.32 10.79,-10.79 24.83,-17.68 14.17,-7.02 26.13,-7.02 5.98,0 10.14,2.99 4.16,2.99 4.16,7.93 0,5.59 -4.81,12.22 -4.81,6.5 -13.65,11.05 -8.71,4.55 -19.89,4.55 z m 24.05,-34.84 q -10.14,0 -23.14,7.41 -13,7.28 -22.36,18.2 8.45,5.33 21.45,5.33 10.27,0 18.07,-3.9 7.93,-3.9 12.09,-9.49 4.29,-5.72 4.29,-10.53 0,-3.25 -2.99,-5.07 -2.99,-1.95 -7.41,-1.95 z m 56.1601,66.3 q 1.04,0.39 1.04,1.82 0,0.91 -0.39,1.69 -4.16,8.19 -10.53,15.08 -6.37,6.76 -12.74,6.76 -9.75,0 -11.18,-10.92 -2.99,4.81 -6.89,7.93 -3.9,2.99 -7.28,2.99 -5.59,0 -8.84,-3.9 -3.25,-4.03 -3.25,-10.92 0,-6.63 4.16,-13.26 4.16,-6.76 10.4,-11.05 6.24,-4.29 11.96,-4.29 4.55,0 7.02,1.69 1.56,1.04 1.56,2.21 0,0.65 -0.39,1.04 -0.52,0.39 -1.04,0.39 -0.52,0 -1.56,-0.26 -1.04,-0.26 -2.08,-0.26 -3.9,0 -8.84,4.68 -4.94,4.55 -8.45,11.44 -3.51,6.89 -3.51,13.13 0,2.73 1.04,4.16 1.04,1.3 2.6,1.3 3.64,0 7.8,-5.2 4.16,-5.33 6.24,-11.57 l 0.13,-0.39 q 1.43,-5.07 4.03,-10.27 2.73,-5.33 6.63,-9.62 1.69,-2.08 2.6,-2.08 1.3,0 1.3,1.56 0,1.04 -0.39,2.08 -2.6,7.54 -4.29,15.47 -1.56,7.8 -1.56,13.13 0,5.85 3.64,5.85 4.68,0 9.62,-5.72 5.07,-5.72 8.58,-12.74 0.52,-1.17 1.3,-1.69 0.91,-0.52 1.56,-0.26 z m 29.89989,0.13 q 0.65,0.39 0.65,1.3 0,0.78 -0.78,2.6 -2.86,5.98 -6.89,10.92 -3.9,4.94 -7.93,7.67 -3.89999,2.73 -7.01999,2.73 -12.74,0 -12.74,-19.63 0,-13 7.15,-31.59 7.15,-18.72 17.67999,-32.24 10.66,-13.65 20.41,-13.65 2.6,0 4.29,1.69 1.69,1.69 1.69,4.29 0,4.68 -6.24,14.56 -6.11,9.75 -15.08,20.28 -8.84,10.53 -16.11999,16.64 -4.55,16.25 -4.55,26.52 0,8.19 3.9,8.19 3.9,0 8.31999,-4.81 4.42,-4.81 10.14,-14.04 1.56,-2.34 3.12,-1.43 z m 10.53,-67.99 q -3.9,0 -9.23,6.5 -5.2,6.37 -10.53,16.9 -5.2,10.53 -9.22999,22.36 6.62999,-6.5 13.90999,-15.47 7.28,-9.1 12.22,-17.03 4.94,-7.93 4.94,-11.18 0,-1.04 -0.65,-1.56 -0.52,-0.52 -1.43,-0.52 z m 2.86002,40.95 q -1.69,0 -2.86,-1.04 -1.04,-1.17 -1.04,-2.73 0,-1.95 1.56,-3.38 1.69,-1.43 3.64,-1.43 1.95,0 2.86,1.43 0.91,1.3 0.65,3.25 -0.26,1.56 -1.69,2.73 -1.43,1.17 -3.12,1.17 z m -7.41,52.26 q -5.98,0 -8.97,-3.77 -2.86,-3.77 -2.86,-10.66 0,-5.46 2.99,-12.87 2.99,-7.54 8.32,-13.65 1.82,-1.95 3.25,-1.95 1.43,0 1.43,1.56 0,0.65 -0.52,1.95 -2.73,7.41 -4.55,15.34 -1.69,7.93 -1.69,13.26 0,2.86 1.17,4.42 1.17,1.43 2.99,1.43 4.42,0 8.71,-5.07 4.29,-5.07 9.36,-13.39 1.43,-2.47 2.99,-1.95 0.91,0.39 0.91,1.82 0,0.91 -0.39,1.69 -4.16,8.19 -10.53,15.08 -6.24,6.76 -12.61,6.76 z m 32.2399,0 q -6.76,0 -10.66,-4.16 -3.9,-4.29 -3.9,-12.09 0,-5.85 3.12,-12.22 3.12,-6.37 8.32,-10.53 5.2,-4.29 11.31,-4.29 4.03,0 7.02,1.69 3.12,1.56 4.29,4.16 l 0.26,1.04 q 0,1.56 -1.43,1.82 h -0.39 q -1.3,0 -2.21,-1.69 -1.56,-2.34 -4.03,-2.34 -4.03,0 -8.06,4.29 -3.9,4.16 -6.5,10.27 -2.47,5.98 -2.47,11.05 0,4.81 1.69,7.02 1.69,2.08 5.2,2.08 3.77,0 8.45,-2.6 4.81,-2.73 8.97,-7.15 4.16,-4.55 6.5,-9.62 0.52,-1.17 1.3,-1.69 0.78,-0.65 1.43,-0.39 1.3,0.26 1.3,2.08 0,0.39 -0.26,1.43 -2.73,5.85 -7.67,10.92 -4.94,4.94 -10.66,7.93 -5.72,2.99 -10.92,2.99 z m 42.9001,-52.26 q -1.69,0 -2.86,-1.04 -1.04,-1.17 -1.04,-2.73 0,-1.95 1.56,-3.38 1.69,-1.43 3.64,-1.43 1.95,0 2.86,1.43 0.91,1.3 0.65,3.25 -0.26,1.56 -1.69,2.73 -1.43,1.17 -3.12,1.17 z m -7.41,52.26 q -5.98,0 -8.97,-3.77 -2.86,-3.77 -2.86,-10.66 0,-5.46 2.99,-12.87 2.99,-7.54 8.32,-13.65 1.82,-1.95 3.25,-1.95 1.43,0 1.43,1.56 0,0.65 -0.52,1.95 -2.73,7.41 -4.55,15.34 -1.69,7.93 -1.69,13.26 0,2.86 1.17,4.42 1.17,1.43 2.99,1.43 4.42,0 8.71,-5.07 4.29,-5.07 9.36,-13.39 1.43,-2.47 2.99,-1.95 0.91,0.39 0.91,1.82 0,0.91 -0.39,1.69 -4.16,8.19 -10.53,15.08 -6.24,6.76 -12.61,6.76 z m 98.53994,-25.35 q 1.04,0.39 1.04,1.82 0,0.65 -0.39,1.69 -2.47,5.33 -7.02,8.45 -4.42,3.12 -10.66,5.07 -0.26,4.68 -2.73,8.45 -2.34,3.9 -6.11,6.11 -3.64,2.34 -7.54,2.34 -2.99,0 -5.2,-1.82 -2.34,-1.82 -2.34,-4.94 0,-3.25 1.95,-5.33 1.82,-2.08 4.55,-3.12 2.86,-1.17 7.93,-2.6 -0.65,-3.77 -4.68,-10.53 -2.99,-5.46 -4.29,-8.84 -1.43,-3.51 -1.43,-7.54 0,-3.77 2.34,-6.5 2.34,-2.73 5.72,-2.86 2.6,0 4.42,2.08 1.82,1.95 1.82,5.33 0,5.33 -3.51,10.92 3.64,4.68 5.72,8.19 2.21,3.38 2.99,6.89 10.66,-3.77 14.56,-11.31 0.52,-1.04 1.3,-1.56 0.91,-0.65 1.56,-0.39 z m -28.86,-16.25 q -1.17,0 -2.08,1.17 -0.78,1.17 -0.78,2.86 0,1.43 0.65,2.99 0.78,1.56 2.34,3.9 1.82,-3.64 1.82,-7.41 0,-3.51 -1.95,-3.51 z m -5.2,46.28 q 2.86,0 5.07,-2.99 2.34,-2.86 2.73,-7.41 -5.59,1.56 -8.19,3.12 -2.6,1.43 -2.6,4.42 0,1.17 0.91,1.95 0.78,0.91 2.08,0.91 z m 78.13008,-30.03 q 0.91,0.39 0.91,1.69 0,1.17 -0.65,2.21 -2.86,5.59 -7.93,8.84 -5.07,3.12 -10.14,3.12 -1.17,0 -2.99,-0.26 -2.73,4.42 -6.5,7.15 -3.77,2.6 -7.93,2.6 -6.24,0 -10.01,-3.77 -3.64,-3.9 -3.64,-10.27 0,-5.98 3.51,-12.61 3.51,-6.76 9.49,-11.31 6.11,-4.55 13.39,-4.55 3.25,0 5.33,1.95 2.21,1.95 2.21,4.81 0,1.43 -0.52,2.21 -0.52,0.78 -1.43,0.78 -0.91,0 -1.43,-0.78 -0.52,-0.91 -0.52,-2.34 0,-2.73 -3.12,-2.73 -3.77,0 -7.93,4.68 -4.16,4.68 -7.02,11.44 -2.73,6.76 -2.73,12.35 0,6.24 4.42,6.24 2.86,0 5.72,-1.95 2.86,-2.08 5.07,-5.46 -2.34,-1.56 -3.64,-4.16 -1.17,-2.6 -1.17,-5.98 0,-4.81 2.47,-7.54 2.47,-2.86 5.07,-2.86 2.6,0 4.03,1.95 1.43,1.82 1.43,4.94 0,5.72 -2.6,11.57 h 1.3 q 3.51,0 7.67,-2.34 4.29,-2.47 7.02,-7.93 0.65,-1.04 1.43,-1.43 0.78,-0.52 1.43,-0.26 z m -25.35,3.9 q 0,4.55 2.73,6.76 2.47,-5.2 2.47,-10.27 0,-2.6 -1.95,-2.6 -1.04,0 -2.21,1.56 -1.04,1.56 -1.04,4.55 z m 67.98991,-41.6 q 0.13,0.91 -0.78,1.56 -0.91,0.52 -2.73,0.65 -7.8,0.26 -13,0.26 l -10.14,-0.13 q -11.7,28.08 -11.7,47.45 0,4.03 1.56,6.24 1.56,2.21 3.9,2.21 4.81,0 9.88,-5.46 5.07,-5.46 9.1,-13.52 0.52,-1.17 1.43,-1.43 0.91,-0.39 1.69,0 0.65,0.26 0.65,1.3 0,1.04 -0.65,2.34 -4.81,9.62 -11.18,15.6 -6.24,5.98 -12.09,5.98 -6.24,0 -9.88,-4.55 -3.64,-4.55 -3.64,-14.17 0,-7.54 2.99,-18.72 3.12,-11.31 8.45,-23.4 h -7.28 q -1.04,0 -1.56,-0.52 -0.52,-0.52 -0.52,-1.17 0,-0.78 0.91,-1.43 0.91,-0.65 2.47,-0.65 h 7.67 q 7.28,-15.6 15.86,-27.43 2.6,-3.51 5.07,-3.51 1.04,0 1.56,0.78 0.65,0.65 0.65,1.69 0,0.78 -0.26,1.17 -8.45,15.6 -13.39,27.3 h 21.97 q 1.3,0 2.08,0.52 0.78,0.39 0.91,1.04 z m 29.64008,0 q 0.13,0.91 -0.78,1.56 -0.91,0.52 -2.73,0.65 -7.8,0.26 -13,0.26 l -10.14,-0.13 q -11.7,28.08 -11.7,47.45 0,4.03 1.56,6.24 1.56,2.21 3.9,2.21 4.81,0 9.88,-5.46 5.07,-5.46 9.1,-13.52 0.52,-1.17 1.43,-1.43 0.91,-0.39 1.69,0 0.65,0.26 0.65,1.3 0,1.04 -0.65,2.34 -4.81,9.62 -11.18,15.6 -6.24,5.98 -12.09,5.98 -6.24,0 -9.88,-4.55 -3.64,-4.55 -3.64,-14.17 0,-7.54 2.99,-18.72 3.12,-11.31 8.45,-23.4 h -7.28 q -1.04,0 -1.56,-0.52 -0.52,-0.52 -0.52,-1.17 0,-0.78 0.91,-1.43 0.91,-0.65 2.47,-0.65 h 7.67 q 7.28,-15.6 15.86,-27.43 2.6,-3.51 5.07,-3.51 1.04,0 1.56,0.78 0.65,0.65 0.65,1.69 0,0.78 -0.26,1.17 -8.45,15.6 -13.39,27.3 h 21.97 q 1.3,0 2.08,0.52 0.78,0.39 0.91,1.04 z m 30.94011,37.7 q 0.91,0.39 0.91,1.69 0,1.17 -0.65,2.21 -2.86,5.59 -7.93,8.84 -5.07,3.12 -10.14,3.12 -1.17,0 -2.99,-0.26 -2.73,4.42 -6.5,7.15 -3.77,2.6 -7.93,2.6 -6.24,0 -10.01,-3.77 -3.64,-3.9 -3.64,-10.27 0,-5.98 3.51,-12.61 3.51,-6.76 9.49,-11.31 6.11,-4.55 13.39,-4.55 3.25,0 5.33,1.95 2.21,1.95 2.21,4.81 0,1.43 -0.52,2.21 -0.52,0.78 -1.43,0.78 -0.91,0 -1.43,-0.78 -0.52,-0.91 -0.52,-2.34 0,-2.73 -3.12,-2.73 -3.77,0 -7.93,4.68 -4.16,4.68 -7.02,11.44 -2.73,6.76 -2.73,12.35 0,6.24 4.42,6.24 2.86,0 5.72,-1.95 2.86,-2.08 5.07,-5.46 -2.34,-1.56 -3.64,-4.16 -1.17,-2.6 -1.17,-5.98 0,-4.81 2.47,-7.54 2.47,-2.86 5.07,-2.86 2.6,0 4.03,1.95 1.43,1.82 1.43,4.94 0,5.72 -2.6,11.57 h 1.3 q 3.51,0 7.67,-2.34 4.29,-2.47 7.02,-7.93 0.65,-1.04 1.43,-1.43 0.78,-0.52 1.43,-0.26 z m -25.35,3.9 q 0,4.55 2.73,6.76 2.47,-5.2 2.47,-10.27 0,-2.6 -1.95,-2.6 -1.04,0 -2.21,1.56 -1.04,1.56 -1.04,4.55 z m 100.61994,-3.77 q 0.65,0.39 0.65,1.3 0,0.78 -0.78,2.6 -2.86,5.98 -6.89,10.92 -3.9,4.94 -7.93,7.67 -3.9,2.73 -7.02,2.73 -12.74,0 -12.74,-19.63 0,-13 7.15,-31.59 7.15,-18.72 17.68,-32.24 10.66,-13.65 20.41,-13.65 2.6,0 4.29,1.69 1.69,1.69 1.69,4.29 0,4.68 -6.24,14.56 -6.11,9.75 -15.08,20.28 -8.84,10.53 -16.12,16.64 -4.55,16.25 -4.55,26.52 0,8.19 3.9,8.19 3.9,0 8.32,-4.81 4.42,-4.81 10.14,-14.04 1.56,-2.34 3.12,-1.43 z m 10.53,-67.99 q -3.9,0 -9.23,6.5 -5.2,6.37 -10.53,16.9 -5.2,10.53 -9.23,22.36 6.63,-6.5 13.91,-15.47 7.28,-9.1 12.22,-17.03 4.94,-7.93 4.94,-11.18 0,-1.04 -0.65,-1.56 -0.52,-0.52 -1.43,-0.52 z m 43.68004,67.86 q 1.04,0.39 1.04,1.82 0,0.91 -0.39,1.69 -4.16,8.19 -10.53,15.08 -6.37,6.76 -12.74,6.76 -9.75,0 -11.18,-10.92 -2.99,4.81 -6.89,7.93 -3.9,2.99 -7.28,2.99 -5.59,0 -8.84,-3.9 -3.25,-4.03 -3.25,-10.92 0,-6.63 4.16,-13.26 4.16,-6.76 10.4,-11.05 6.24,-4.29 11.96,-4.29 4.55,0 7.02,1.69 1.56,1.04 1.56,2.21 0,0.65 -0.39,1.04 -0.52,0.39 -1.04,0.39 -0.52,0 -1.56,-0.26 -1.04,-0.26 -2.08,-0.26 -3.9,0 -8.84,4.68 -4.94,4.55 -8.45,11.44 -3.51,6.89 -3.51,13.13 0,2.73 1.04,4.16 1.04,1.3 2.6,1.3 3.64,0 7.8,-5.2 4.16,-5.33 6.24,-11.57 l 0.13,-0.39 q 1.43,-5.07 4.03,-10.27 2.73,-5.33 6.63,-9.62 1.69,-2.08 2.6,-2.08 1.3,0 1.3,1.56 0,1.04 -0.39,2.08 -2.6,7.54 -4.29,15.47 -1.56,7.8 -1.56,13.13 0,5.85 3.64,5.85 4.68,0 9.62,-5.72 5.07,-5.72 8.58,-12.74 0.52,-1.17 1.3,-1.69 0.91,-0.52 1.56,-0.26 z m 55.63994,30.55 q -5.07,0 -8.71,-3.38 -3.64,-3.25 -3.64,-8.58 0,-3.51 1.95,-6.76 2.08,-3.38 5.46,-5.72 1.17,-0.78 2.08,-0.78 1.04,0 1.56,0.78 0.26,0.52 0.26,0.91 0,1.3 -1.04,1.95 -5.72,4.42 -5.72,9.62 0,3.12 2.08,4.94 2.08,1.95 5.33,1.95 11.7,0 20.67,-8.32 9.1,-8.45 18.72,-25.22 -7.15,-4.03 -7.15,-10.27 0,-4.42 3.25,-7.15 3.38,-2.86 9.1,-2.86 2.21,0 5.07,0.65 6.37,-12.74 11.31,-20.8 5.07,-8.06 11.31,-13.52 -3.51,-0.78 -7.54,-0.78 -10.79,0 -19.37,2.86 -8.58,2.86 -13.39,8.06 -4.81,5.07 -4.81,11.7 0,2.86 2.21,5.46 0.91,1.04 0.91,2.21 0,0.91 -0.52,1.43 -0.39,0.39 -1.04,0.39 -1.04,0 -2.34,-1.3 -3.12,-3.38 -3.12,-8.19 0,-7.8 5.33,-13.78 5.46,-6.11 14.95,-9.36 9.62,-3.38 21.71,-3.38 5.85,0 11.7,1.04 8.97,-5.85 20.15,-5.85 1.3,0 2.21,0.52 0.91,0.52 0.91,1.17 0,0.78 -0.78,1.43 -0.78,0.52 -1.95,0.78 -5.59,0.91 -11.31,4.68 9.23,3.9 14.17,11.05 5.07,7.02 5.07,16.38 0,8.45 -4.94,15.47 -4.94,7.02 -13.13,11.31 -8.06,4.29 -17.42,5.2 0.13,0.78 0.13,2.34 0,3.64 -1.43,9.62 -0.65,2.86 -1.17,6.11 -0.52,3.25 -0.52,6.24 0,5.46 2.86,8.32 2.86,2.86 7.54,2.86 3.77,0 6.37,-2.21 2.6,-2.08 3.64,-1.04 0.52,0.52 0.52,1.17 0,0.78 -1.17,2.21 -3.38,3.77 -10.92,3.77 -4.94,0 -8.97,-2.47 -4.03,-2.34 -6.37,-6.5 -2.21,-4.16 -2.21,-9.23 0,-5.33 1.3,-14.69 0.39,-1.95 0.91,-6.5 -7.28,-0.39 -11.57,-1.43 -10.79,17.94 -22.49,26.78 -11.7,8.71 -26,8.71 z m 69.03,-38.09 q 6.11,-1.04 11.44,-5.2 5.33,-4.16 8.45,-10.79 3.25,-6.63 3.25,-14.56 0,-6.63 -2.99,-11.96 -2.99,-5.33 -8.32,-8.58 -5.59,5.59 -10.27,13.52 -4.68,7.8 -11.83,21.71 3.77,2.86 6.37,6.89 2.73,4.03 3.9,8.97 z m -32.89,-10.79 q 0,3.9 4.94,6.63 2.6,-4.55 5.07,-10.01 0.26,-0.39 1.3,-2.47 -2.08,-0.26 -3.25,-0.26 -4.03,0 -6.11,1.69 -1.95,1.69 -1.95,4.42 z m 14.56,9.75 q 4.29,0.91 9.62,1.17 v -0.39 q 0,-6.89 -3.77,-11.44 z m 98.01992,8.58 q 0.91,0.39 0.91,1.69 0,1.17 -0.65,2.21 -2.86,5.59 -7.93,8.84 -5.07,3.12 -10.14,3.12 -1.17,0 -2.99,-0.26 -2.73,4.42 -6.5,7.15 -3.77,2.6 -7.93,2.6 -6.24,0 -10.01,-3.77 -3.64,-3.9 -3.64,-10.27 0,-5.98 3.51,-12.61 3.51,-6.76 9.49,-11.31 6.11,-4.55 13.39,-4.55 3.25,0 5.33,1.95 2.21,1.95 2.21,4.81 0,1.43 -0.52,2.21 -0.52,0.78 -1.43,0.78 -0.91,0 -1.43,-0.78 -0.52,-0.91 -0.52,-2.34 0,-2.73 -3.12,-2.73 -3.77,0 -7.93,4.68 -4.16,4.68 -7.02,11.44 -2.73,6.76 -2.73,12.35 0,6.24 4.42,6.24 2.86,0 5.72,-1.95 2.86,-2.08 5.07,-5.46 -2.34,-1.56 -3.64,-4.16 -1.17,-2.6 -1.17,-5.98 0,-4.81 2.47,-7.54 2.47,-2.86 5.07,-2.86 2.6,0 4.03,1.95 1.43,1.82 1.43,4.94 0,5.72 -2.6,11.57 h 1.3 q 3.51,0 7.67,-2.34 4.29,-2.47 7.02,-7.93 0.65,-1.04 1.43,-1.43 0.78,-0.52 1.43,-0.26 z m -25.35,3.9 q 0,4.55 2.73,6.76 2.47,-5.2 2.47,-10.27 0,-2.6 -1.95,-2.6 -1.04,0 -2.21,1.56 -1.04,1.56 -1.04,4.55 z m 34.96994,21.45 q -6.76,0 -10.66,-4.16 -3.9,-4.29 -3.9,-12.09 0,-5.85 3.12,-12.22 3.12,-6.37 8.32,-10.53 5.2,-4.29 11.31,-4.29 4.03,0 7.02,1.69 3.12,1.56 4.29,4.16 l 0.26,1.04 q 0,1.56 -1.43,1.82 h -0.39 q -1.3,0 -2.21,-1.69 -1.56,-2.34 -4.03,-2.34 -4.03,0 -8.06,4.29 -3.9,4.16 -6.5,10.27 -2.47,5.98 -2.47,11.05 0,4.81 1.69,7.02 1.69,2.08 5.2,2.08 3.77,0 8.45,-2.6 4.81,-2.73 8.97,-7.15 4.16,-4.55 6.5,-9.62 0.52,-1.17 1.3,-1.69 0.78,-0.65 1.43,-0.39 1.3,0.26 1.3,2.08 0,0.39 -0.26,1.43 -2.73,5.85 -7.67,10.92 -4.94,4.94 -10.66,7.93 -5.72,2.99 -10.92,2.99 z m 38.22003,0 q -6.76,0 -10.66,-4.16 -3.9,-4.29 -3.9,-12.09 0,-5.85 3.12,-12.22 3.12,-6.37 8.32,-10.53 5.2,-4.29 11.31,-4.29 4.03,0 7.02,1.69 3.12,1.56 4.29,4.16 l 0.26,1.04 q 0,1.56 -1.43,1.82 h -0.39 q -1.3,0 -2.21,-1.69 -1.56,-2.34 -4.03,-2.34 -4.03,0 -8.06,4.29 -3.9,4.16 -6.5,10.27 -2.47,5.98 -2.47,11.05 0,4.81 1.69,7.02 1.69,2.08 5.2,2.08 3.77,0 8.45,-2.6 4.81,-2.73 8.97,-7.15 4.16,-4.55 6.5,-9.62 0.52,-1.17 1.3,-1.69 0.78,-0.65 1.43,-0.39 1.3,0.26 1.3,2.08 0,0.39 -0.26,1.43 -2.73,5.85 -7.67,10.92 -4.94,4.94 -10.66,7.93 -5.72,2.99 -10.92,2.99 z m 83.7201,-25.35 q 1.04,0.39 1.04,1.82 0,0.91 -0.39,1.69 -4.16,8.19 -10.53,15.08 -6.37,6.76 -12.74,6.76 -9.75,0 -11.18,-10.92 -2.99,4.81 -6.89,7.93 -3.9,2.99 -7.28,2.99 -5.59,0 -8.84,-3.9 -3.25,-4.03 -3.25,-10.92 0,-6.63 4.16,-13.26 4.16,-6.76 10.4,-11.05 6.24,-4.29 11.96,-4.29 4.55,0 7.02,1.69 1.56,1.04 1.56,2.21 0,0.65 -0.39,1.04 -0.52,0.39 -1.04,0.39 -0.52,0 -1.56,-0.26 -1.04,-0.26 -2.08,-0.26 -3.9,0 -8.84,4.68 -4.94,4.55 -8.45,11.44 -3.51,6.89 -3.51,13.13 0,2.73 1.04,4.16 1.04,1.3 2.6,1.3 3.64,0 7.8,-5.2 4.16,-5.33 6.24,-11.57 l 0.13,-0.39 q 1.43,-5.07 4.03,-10.27 2.73,-5.33 6.63,-9.62 1.69,-2.08 2.6,-2.08 1.3,0 1.3,1.56 0,1.04 -0.39,2.08 -2.6,7.54 -4.29,15.47 -1.56,7.8 -1.56,13.13 0,5.85 3.64,5.85 4.68,0 9.62,-5.72 5.07,-5.72 8.58,-12.74 0.52,-1.17 1.3,-1.69 0.91,-0.52 1.56,-0.26 z"
       id="text4144"
       aria-label="Calici sotto la Rocca " />
  </g>
</svg>
